PathFileType	4	(X/Y/Z)	/Users/itak/Documents/Research/Walk-IL/dataset/trc/00069_00006.trc
DataRate	CameraRate	NumFrames	NumMarkers	Units	OrigDataRate	OrigDataStartFrame	OrigNumFrames
100.000000	100.000000	4	53	mm	100.000000	95	765
Frame#	Time	RPSI			LPSI			L3			STRN			T10			C7			CLAV			RBAK			LBAK			LSHO			LUPA			LAEL			LAOL			LWTS			LWPS			LFRA			LIFD			LHPS			LHTS			RSHO			RUPA			RAEL			RAOL			RWTS			RWPS			RFRA			RIFD			RHTS			RHPS			RBHD			LFHD			RFHD			LBHD			LHIP			RHIP			RASI			LASI			LKNE			LTHI			LANK			LTIP			LTOE			LMT1			LMT5			LHEE			RKNE			RTHI			RANK			RTIP			RTOE			RMT1			RMT5			RHEE			
		X1	Y1	Z1	X2	Y2	Z2	X3	Y3	Z3	X4	Y4	Z4	X5	Y5	Z5	X6	Y6	Z6	X7	Y7	Z7	X8	Y8	Z8	X9	Y9	Z9	X10	Y10	Z10	X11	Y11	Z11	X12	Y12	Z12	X13	Y13	Z13	X14	Y14	Z14	X15	Y15	Z15	X16	Y16	Z16	X17	Y17	Z17	X18	Y18	Z18	X19	Y19	Z19	X20	Y20	Z20	X21	Y21	Z21	X22	Y22	Z22	X23	Y23	Z23	X24	Y24	Z24	X25	Y25	Z25	X26	Y26	Z26	X27	Y27	Z27	X28	Y28	Z28	X29	Y29	Z29	X30	Y30	Z30	X31	Y31	Z31	X32	Y32	Z32	X33	Y33	Z33	X34	Y34	Z34	X35	Y35	Z35	X36	Y36	Z36	X37	Y37	Z37	X38	Y38	Z38	X39	Y39	Z39	X40	Y40	Z40	X41	Y41	Z41	X42	Y42	Z42	X43	Y43	Z43	X44	Y44	Z44	X45	Y45	Z45	X46	Y46	Z46	X47	Y47	Z47	X48	Y48	Z48	X49	Y49	Z49	X50	Y50	Z50	X51	Y51	Z51	X52	Y52	Z52	X53	Y53	Z53	

96	0.9500000000000001	278.2204284667969	1030.2841796875	1066.080200195312	296.0739440917969	1022.531982421875	1241.034423828125	285.6097106933594	1081.103637695312	1159.9736328125	39.85158920288086	1282.322509765625	1164.68603515625	307.6387023925781	1216.215942382812	1163.108276367188	249.3722534179688	1482.981567382812	1166.426635742188	70.25804138183594	1396.792724609375	1164.802734375	309.8993835449219	1343.564575195312	1090.776611328125	271.4800109863281	1445.83837890625	1268.200927734375	167.4249572753906	1451.04296875	1340.68017578125	178.3390350341797	1322.722412109375	1417.285034179688	146.1196899414062	1106.63134765625	1429.788208007812	214.7015991210938	1091.792236328125	1348.223510742188	47.36318969726562	873.4249267578125	1350.016235351562	99.80728912353516	858.20263671875	1412.655395507812	118.9132080078125	998.0902709960938	1431.389526367188	30.14963340759277	692.7587280273438	1317.347900390625	62.54675674438477	777.8785400390625	1401.014038085938	18.90898132324219	793.3102416992188	1348.075805664062	183.7775115966797	1444.936279296875	990.1282348632812	191.7649536132812	1374.369262695312	927.101318359375	208.635498046875	1105.427612304688	907.0764770507812	195.4713592529297	1088.734008789062	1004.670471191406	58.90149688720703	860.640869140625	959.20166015625	125.8292236328125	841.4293823242188	906.545166015625	192.2570495605469	1026.221923828125	904.1134033203125	62.08139038085938	677.185546875	994.054931640625	31.97182846069336	757.809326171875	963.7686157226562	86.8931884765625	752.119384765625	908.46435546875	199.9559478759766	1668.798095703125	1230.322265625	49.89802169799805	1689.967407226562	1076.737426757812	26.90073204040527	1701.759765625	1200.138549804688	215.6955108642578	1649.173706054688	1095.052001953125	196.515380859375	962.1276245117188	1337.933471679688	205.8362426757812	959.9579467773438	993.6181030273438	83.107421875	977.8983154296875	1019.251159667969	81.27127838134766	971.2177124023438	1288.725219726562	112.0977401733398	498.1849670410156	1281.005737304688	147.2041931152344	637.81005859375	1321.068237304688	262.9291381835938	51.18145370483398	1299.94775390625	193.0417785644531	260.1268615722656	1301.26953125	57.28178787231445	51.29544067382812	1289.497802734375	106.6777496337891	46.15953826904297	1237.111328125	160.7919616699219	45.79934692382812	1336.100830078125	315.6173400878906	45.37448120117188	1224.37744140625	137.4395141601562	515.3469848632812	1020.494750976562	124.9776306152344	786.1385498046875	989.5046997070312	256.5943603515625	41.8006591796875	1025.348876953125	165.2895202636719	392.6572570800781	1014.2998046875	42.49251174926758	42.06473159790039	1070.67138671875	104.7800979614258	46.50583648681641	1108.173095703125	130.8227996826172	46.98910140991211	1014.977722167969	305.5960083007812	43.836669921875	1080.824951171875	
97	0.96	277.4300842285156	1029.769287109375	1066.5546875	295.2325134277344	1022.039916992188	1241.513671875	285.0578918457031	1080.932373046875	1160.48046875	39.08769607543945	1282.185668945312	1164.992309570312	307.1653442382812	1216.067016601562	1163.770751953125	248.7511138916016	1482.822021484375	1167.0439453125	69.67507934570312	1396.655517578125	1165.183959960938	309.3619079589844	1343.373779296875	1091.485717773438	270.6784973144531	1445.670043945312	1268.827880859375	166.5780487060547	1450.899780273438	1341.182373046875	177.4223327636719	1322.6728515625	1417.889770507812	145.1338195800781	1106.48046875	1430.481567382812	214.00634765625	1091.666015625	1349.182983398438	46.65163040161133	873.4324340820312	1349.954223632812	98.79420471191406	858.109130859375	1412.8544921875	117.8637237548828	997.946044921875	1431.82421875	29.76156425476074	692.6296997070312	1316.985595703125	61.67439651489258	777.7697143554688	1400.946899414062	18.29660224914551	793.2582397460938	1347.724487304688	183.4045715332031	1444.748046875	990.6572875976562	191.5286254882812	1374.213500976562	927.6767578125	208.5375518798828	1105.34326171875	907.4915771484375	195.0835571289062	1088.5537109375	1005.031799316406	58.87918472290039	860.436279296875	959.0556030273438	125.909423828125	841.31884765625	906.501708984375	192.183349609375	1026.165405273438	904.392578125	62.10440444946289	676.9644165039062	993.6880493164062	32.05887603759766	757.6239624023438	963.497314453125	86.97491455078125	752.00341796875	908.2452392578125	198.7307434082031	1668.737182617188	1230.8935546875	49.36767196655273	1689.704223632812	1076.683959960938	25.77025604248047	1701.518310546875	1199.973999023438	215.0273284912109	1649.0048828125	1095.722290039062	195.6451110839844	961.9893188476562	1338.725463867188	204.9095764160156	959.7044067382812	994.0952758789062	82.15724945068359	977.87841796875	1019.821228027344	80.55205535888672	971.1517333984375	1289.34619140625	111.5424041748047	498.0423889160156	1281.310668945312	146.4372100830078	637.7047729492188	1321.45361328125	263.0508728027344	51.15853118896484	1300.076538085938	192.9485778808594	260.0230102539062	1301.478759765625	57.50244903564453	51.84382629394531	1289.3232421875	106.9235076904297	46.42772674560547	1237.107666015625	160.9105224609375	45.95099258422852	1336.025146484375	315.8546752929688	45.28454971313477	1224.564575195312	136.0402069091797	515.1605834960938	1021.095275878906	123.5845489501953	786.0457763671875	990.1373901367188	256.6090698242188	41.63643646240234	1025.135986328125	164.3668365478516	392.5434875488281	1014.441101074219	42.74199676513672	42.44810485839844	1070.286010742188	104.9675140380859	46.73008728027344	1107.98681640625	130.9070129394531	46.94685745239258	1014.751281738281	305.69873046875	43.76457214355469	1080.527099609375	
98	0.97	276.5140380859375	1029.32763671875	1067.04248046875	294.302490234375	1021.6162109375	1242.011840820312	284.377685546875	1080.762084960938	1161.01708984375	38.25688552856445	1282.097290039062	1165.348022460938	306.5940551757812	1215.904052734375	1164.471923828125	248.0958099365234	1482.666259765625	1167.69677734375	69.05465698242188	1396.540405273438	1165.602294921875	308.7677917480469	1343.16064453125	1092.240844726562	269.8275146484375	1445.502319335938	1269.4921875	165.6798095703125	1450.78955078125	1341.722045898438	176.4383697509766	1322.653686523438	1418.536743164062	144.0449981689453	1106.37158203125	1431.205322265625	213.2475280761719	1091.57958984375	1350.213623046875	45.89823532104492	873.4727783203125	1349.88134765625	97.66261291503906	858.0596313476562	1413.073974609375	116.7106475830078	997.8572998046875	1432.278930664062	29.36841201782227	692.5551147460938	1316.630615234375	60.72874450683594	777.70849609375	1400.914794921875	17.69179153442383	793.2039794921875	1347.346435546875	183.0023345947266	1444.576293945312	991.22216796875	191.2843933105469	1374.059204101562	928.307373046875	208.4492797851562	1105.290771484375	907.9608154296875	194.6959686279297	1088.396240234375	1005.433349609375	58.88603210449219	860.2300415039062	958.8697509765625	126.0327453613281	841.2344360351562	906.4534912109375	192.1334991455078	1026.135986328125	904.7111206054688	62.15370559692383	676.743408203125	993.2739868164062	32.15616226196289	757.4420166015625	963.1544189453125	87.13928985595703	751.890625	907.9954223632812	197.3931884765625	1668.729858398438	1231.507690429688	48.76064300537109	1689.428466796875	1076.623779296875	24.52927780151367	1701.255737304688	1199.78662109375	214.3108062744141	1648.882690429688	1096.443725585938	194.7373199462891	961.8757934570312	1339.548706054688	203.8488922119141	959.499267578125	994.5985107421875	81.10649871826172	977.8497924804688	1020.49267578125	79.76275634765625	971.0927734375	1290.054931640625	111.0855407714844	497.9085388183594	1281.691284179688	145.7248840332031	637.6099853515625	1321.906005859375	263.1696472167969	51.12348937988281	1300.220581054688	192.8765411376953	259.9177551269531	1301.741577148438	57.7144660949707	52.33186340332031	1289.150268554688	107.1519165039062	46.66596603393555	1237.105224609375	160.9979553222656	46.06258010864258	1335.9609375	316.0915832519531	45.21479034423828	1224.788452148438	134.5737152099609	514.9745483398438	1021.720397949219	122.1339950561523	785.9559326171875	990.7918701171875	256.6316528320312	41.44036102294922	1024.88037109375	163.3814697265625	392.4344177246094	1014.600463867188	43.03755950927734	42.90207672119141	1069.841064453125	105.1855545043945	46.99913024902344	1107.757690429688	131.0283508300781	46.89725112915039	1014.473449707031	305.8264465332031	43.66603851318359	1080.19873046875	
99	0.98	275.4900207519531	1028.962280273438	1067.551025390625	293.3019714355469	1021.261047363281	1242.5361328125	283.5702819824219	1080.595703125	1161.585693359375	37.36709594726562	1282.047729492188	1165.765502929688	305.9081420898438	1215.724243164062	1165.209716796875	247.3959503173828	1482.512084960938	1168.384521484375	68.39141845703125	1396.439575195312	1166.067504882812	308.1111755371094	1342.927978515625	1093.038940429688	268.9272766113281	1445.337036132812	1270.19287109375	164.7304382324219	1450.719970703125	1342.298583984375	175.3887939453125	1322.664306640625	1419.229248046875	142.8630065917969	1106.309936523438	1431.956909179688	212.4238586425781	1091.538330078125	1351.301147460938	45.08224868774414	873.55322265625	1349.794555664062	96.41565704345703	858.0589599609375	1413.307861328125	115.4619216918945	997.8281860351562	1432.755615234375	28.93695068359375	692.5601196289062	1316.279541015625	59.68779754638672	777.698486328125	1400.901123046875	17.11200332641602	793.1434326171875	1346.96044921875	182.5575714111328	1444.417602539062	991.82373046875	191.0157775878906	1373.902465820312	928.9945678710938	208.3809661865234	1105.269897460938	908.4811401367188	194.3075866699219	1088.259887695312	1005.875122070312	58.91626358032227	860.0224609375	958.640869140625	126.2025604248047	841.1729125976562	906.4028930664062	192.1239166259766	1026.128784179688	905.0700073242188	62.21824264526367	676.5247802734375	992.8207397460938	32.25437164306641	757.2582397460938	962.7332153320312	87.39290618896484	751.7781372070312	907.7233276367188	195.9442901611328	1668.767822265625	1232.168334960938	48.07123947143555	1689.135620117188	1076.556396484375	23.18533897399902	1700.97900390625	1199.578857421875	213.5473785400391	1648.80126953125	1097.218872070312	193.8050689697266	961.7783203125	1340.393432617188	202.6622619628906	959.3357543945312	995.1314697265625	79.97341918945312	977.8074951171875	1021.254455566406	78.90504455566406	971.0403442382812	1290.838500976562	110.7216339111328	497.7760314941406	1282.137084960938	145.0637054443359	637.5211791992188	1322.421997070312	263.28662109375	51.07680892944336	1300.379150390625	192.8121948242188	259.8078002929688	1302.050415039062	57.91570281982422	52.75093078613281	1288.989013671875	107.3550262451172	46.86871719360352	1237.099731445312	161.0582885742188	46.13603210449219	1335.911499023438	316.3205261230469	45.16460418701172	1225.035888671875	132.9706726074219	514.787109375	1022.366638183594	120.6363525390625	785.8607177734375	991.4661254882812	256.6623229980469	41.21402359008789	1024.5859375	162.2596588134766	392.31298828125	1014.779296875	43.3693962097168	43.39700698852539	1069.365844726562	105.4138031005859	47.30661392211914	1107.486328125	131.1844177246094	46.83504486083984	1014.148681640625	305.9702758789062	43.54916381835938	1079.8525390625	
